<svg width="47.333374" height="40.000000" viewBox="0 0 47.3334 40" fill="none" xmlns="http://www.w3.org/2000/svg" xmlns:xlink="http://www.w3.org/1999/xlink">
	<desc>
			Created with Pixso.
	</desc>
	<defs/>
	<rect id="social-telegram" width="47.333332" height="40.000000" fill="#FFFFFF" fill-opacity="0"/>
	<rect id="Social" width="18.000000" height="16.000000" transform="translate(14.666626 12.000000)" fill="#FFFFFF" fill-opacity="0"/>
	<path id="Vector" d="M31.4517 12.0994L15.5071 18.2478C14.4189 18.6848 14.4253 19.2917 15.3075 19.5625L19.4011 20.8396L28.8724 14.8638C29.3203 14.5913 29.7295 14.7378 29.3932 15.0364L21.7195 21.9619L21.7177 21.9619L21.7195 21.9626L21.4371 26.1824C21.8507 26.1824 22.0333 25.9924 22.2654 25.7686L24.2537 23.8352L28.3895 26.8899C29.1521 27.3101 29.6998 27.0942 29.8895 26.1841L32.6046 13.3889C32.8824 12.2747 32.1792 11.77 31.4517 12.0994Z" fill="#83B3D3" fill-opacity="1.000000" fill-rule="nonzero"/>
</svg>
