<svg width="75.000000" height="76.000000" viewBox="0 0 75 76" fill="none" xmlns="http://www.w3.org/2000/svg" xmlns:xlink="http://www.w3.org/1999/xlink">
	<desc>
			Created with Pixso.
	</desc>
	<defs/>
	<rect id="Icon=souvenir" width="75.000000" height="72.000000" transform="translate(-0.500000 2.000000)" fill="#FFFFFF" fill-opacity="0"/>
	<path id="Vector" d="M66.6 22.46L66.5 22.46L41.8 22.46C55.6 15.55 56.7 11.15 56.2 8.75C55 4.75 50.5 1.74 46.2 3.34C40.6 5.45 39.1 13.75 37.6 19.76C35.6 13.65 33.8 5.95 29.39 2.04C28.1 0.94 26.3 -0.26 23.6 0.04C19.6 0.44 13.8 5.45 16.1 11.05C18.39 16.45 25.8 19.86 30.7 22.56L8.69 22.56L8.39 22.56C6.8 22.56 5.5 23.86 5.5 25.46L5.5 36.77C5.5 38.37 6.8 39.67 8.39 39.67L8.69 39.67L8.69 72.99L8.69 75.39L8.69 76L66.5 76L66.5 75.49L66.5 72.99L66.5 39.57L66.6 39.57C68.19 39.57 69.5 38.27 69.5 36.67L69.5 25.36C69.5 23.76 68.19 22.46 66.6 22.46ZM47.89 5.85C50 5.55 52.89 7.15 53.2 9.05C53.6 11.85 49.8 14.35 48.1 15.45C45.6 17.15 43.2 18.05 40.8 19.56C41.7 15.85 43.3 6.55 47.89 5.85ZM25 15.85C22.8 14.35 18.5 11.45 18.6 8.05C18.7 4.44 24.3 1.44 27.39 4.14C31.3 7.55 33.1 15.25 34.5 20.76C31.3 19.26 28.2 17.95 25 15.85ZM31 72.99L11.6 72.99L11.6 39.57L31 39.57L31 72.99ZM31 36.47L8.5 36.47L8.5 25.46L31 25.46L31 36.47ZM41.2 36.47L41.2 39.47L41.2 72.99L34 72.99L34 39.57L34 36.57L34 25.56L41.2 25.56L41.2 36.47ZM63.5 72.99L44.1 72.99L44.1 39.57L63.5 39.57L63.5 72.99ZM66.39 36.47L44.1 36.47L44.1 25.46L66.39 25.46L66.39 36.47Z" fill="#83B3D3" fill-opacity="1.000000" fill-rule="nonzero"/>
</svg>
