<svg width="47.333374" height="40.000000" viewBox="0 0 47.3334 40" fill="none" xmlns="http://www.w3.org/2000/svg" xmlns:xlink="http://www.w3.org/1999/xlink">
	<desc>
			Created with Pixso.
	</desc>
	<defs/>
	<rect id="social-vk" width="47.333332" height="40.000000" fill="#FFFFFF" fill-opacity="0"/>
	<path id="Vector" d="M35.1163 13.948C35.2823 13.4021 35.1163 13 34.3214 13L31.6964 13C31.0284 13 30.7203 13.3469 30.5533 13.73C30.5533 13.73 29.2184 16.926 27.3274 19.002C26.7153 19.604 26.4374 19.7949 26.1034 19.7949C25.9364 19.7949 25.6854 19.604 25.6854 19.0569L25.6854 13.948C25.6854 13.292 25.5013 13 24.9454 13L20.8174 13C20.4004 13 20.1494 13.304 20.1494 13.593C20.1494 14.2141 21.0953 14.3579 21.1924 16.106L21.1924 19.9041C21.1924 20.7371 21.0394 20.8879 20.7053 20.8879C19.8154 20.8879 17.6504 17.677 16.3654 14.0029C16.1163 13.2881 15.8644 13 15.1934 13L12.5664 13C11.8164 13 11.6664 13.3469 11.6664 13.73C11.6664 14.4121 12.5564 17.8 15.8114 22.281C17.9813 25.3411 21.0364 27 23.8193 27C25.4884 27 25.6943 26.6321 25.6943 25.9971L25.6943 23.6841C25.6943 22.947 25.8524 22.8 26.3813 22.8C26.7714 22.8 27.4384 22.9919 28.9963 24.467C30.7764 26.2161 31.0693 27 32.0714 27L34.6964 27C35.4464 27 35.8224 26.6321 35.6063 25.9041C35.3684 25.1799 34.5184 24.1289 33.3914 22.8821C32.7794 22.1721 31.8613 21.407 31.5824 21.0239C31.1934 20.533 31.3044 20.314 31.5824 19.877C31.5824 19.877 34.7823 15.4509 35.1154 13.948L35.1163 13.948Z" fill="#83B3D3" fill-opacity="1.000000" fill-rule="evenodd"/>
</svg>
